# WaveFront *.obj file (generated by Cinema 4D)

mtllib ./Spacehero-arms.mtl

v 0.0817464068532 0.19445978105068 -0.02957355044782
v 0.10955549776554 0.18375660479069 -0.00288842059672
v 0.08820592612028 0.1799835562706 0.017847051844
v 0.06039683148265 0.19068673253059 -0.00883807707578
v 0.06734910607338 0.18801094591618 -0.00216679414734
v 0.081089399755 0.17872588336468 0.02475887537003
v 0.0602325797081 0.18675325810909 0.00474502937868
v 0.06225343421102 0.20585910975933 0.01030225027353
v 0.08311025798321 0.19783172011375 0.03031609766185
v 0.09022677689791 0.19908940792084 0.02340427413583
v 0.06936995685101 0.20711679756641 0.00339042698033
v 0.06342811137438 0.21934551000595 -0.00050224381266
v 0.07038038223982 0.21666972339153 0.0061690392904
v 0.09172996133566 0.22044277191162 -0.01456643361598
v 0.08477768301964 0.22311855852604 -0.02123771607876
v 0.07139080762863 0.22622263431549 0.00894764903933
v 0.09224762767553 0.21819525957108 0.02896149456501
v 0.11359720677137 0.22196830809116 0.00822602212429
v 0.09274038672447 0.22999568283558 -0.01178782433271
v 0.11258678138256 0.21241538226604 0.00544741284102
# 20 vertices

vn 0.10104260593653 0.95529240369797 0.27786105871201
vn -0.10104260593653 -0.95529240369797 -0.27786105871201
vn 0.69522744417191 -0.26757937669754 0.66712826490402
vn -0.69522744417191 0.26757937669754 -0.66712826490402
vn -0.71165245771408 -0.12576824426651 0.69118243455887
vn 0.71165245771408 0.12576824426651 -0.69118243455887
# 6 normals

vt 0 0.75 0
vt 0 1 0
vt 0.1875 1 0
vt 0.1875 0.75 0
vt 0 0.8125 0
vt 0.0625 1 0
vt 0.0625 0.8125 0
vt 0.1875 0.8125 0
vt 0 0.5625 0
vt 0.1875 0.5625 0
vt 0 0.375 0
vt 0.0625 0.375 0
vt 0.0625 0.5625 0
vt 0.125 0.4375 0
vt 0.125 0.5625 0
vt 0.0625 0.4375 0
vt 0.375 1 0
vt 0.375 0.75 0
vt 0.1875 0.4375 0
vt 0.5625 1 0
vt 0.5625 0.75 0
vt 0.625 1 0
vt 0.625 0.8125 0
vt 0.5625 0.8125 0
vt 0.3125 0.5625 0
vt 0.3125 0.75 0
vt 0.25 0.375 0
vt 0.25 0.5625 0
vt 0.1875 0.375 0
vt 0.4375 0.5625 0
vt 0.4375 0.75 0
# 31 texture coordinates

o Right_Hand-local
usemtl Male_RightHand-Material
f 4/4/1 3/3/1 2/2/1 1/1/1
f 7/7/1 6/6/1 3/2/1 5/5/1
f 11/5/2 10/2/2 9/6/2 8/7/2
f 15/2/2 14/6/2 13/7/2 12/5/2
f 19/2/2 18/3/2 17/8/2 16/5/2
f 1/1/3 15/4/3 12/10/3 4/9/3
f 14/9/3 19/13/3 16/12/3 13/11/3
f 5/16/3 11/13/3 8/15/3 7/14/3
f 3/18/4 17/17/4 18/3/4 2/4/4
f 6/19/4 9/10/4 10/15/4 3/14/4
f 2/18/5 20/21/5 15/20/5 1/17/5
f 20/24/5 18/23/5 19/22/5 14/20/5
f 11/4/6 16/26/6 17/25/6 10/10/6
f 4/29/6 12/10/6 13/28/6 5/27/6
f 7/26/6 8/31/6 9/30/6 6/25/6

v 0.0709063410759 0.21726512908936 0.00393071118742
v 0.09225591272116 0.22103817760944 -0.01680475845933
v 0.11311273276806 0.21301080286503 0.00320908753201
v 0.0917631611228 0.20923775434494 0.0239445567131
v 0.1008569970727 0.29521405696869 0.04895205423236
v 0.12220656871796 0.29898712038994 0.02821658365428
v 0.10134974867105 0.30701449513435 0.0082027381286
v 0.08000017702579 0.30324146151543 0.02893820777535
# 8 vertices

vn 0.10104260593653 0.95529240369797 0.27786108851433
vn -0.10104260593653 -0.95529240369797 -0.27786108851433
vn 0.71165245771408 0.12576824426651 -0.69118237495422
vn -0.71165245771408 -0.12576824426651 0.69118237495422
vn 0.69522738456726 -0.26757940649986 0.66712826490402
vn -0.69522738456726 0.26757940649986 -0.66712826490402
# 6 normals

vt 0.09375 1 0
vt 0.09375 0.90625 0
vt 0 0.90625 0
vt 0.1875 0.90625 0
vt 0.375 0.71875 0
vt 0.28125 1 0
vt 0.28125 0.71875 0
vt 0.46875 1 0
vt 0.46875 0.71875 0
vt 0.5625 0.71875 0
vt 0.09375 0.4375 0
vt 0.09375 0.71875 0
vt 0 0.71875 0
vt 0 0.4375 0
# 14 texture coordinates

o Right_Forearm-local
usemtl Male_RightForeArm-Material
f 24/34/7 23/33/7 22/32/7 21/2/7
f 28/32/8 27/3/8 26/35/8 25/33/8
f 21/38/9 28/37/9 25/17/9 24/36/9
f 23/40/10 26/39/10 27/17/10 22/36/10
f 22/41/11 27/20/11 28/39/11 21/40/11
f 24/45/12 25/44/12 26/43/12 23/42/12

v 0.08588794618845 0.2861535847187 0.01571343652904
v 0.11321849375963 0.2921376824379 0.00488606886938
v 0.12270300090313 0.29885974526405 0.03254213556647
v 0.09537246078253 0.29287564754486 0.04336950182915
v 0.07213626801968 0.32207056879997 0.00085202459013
v 0.09946680814028 0.32805466651917 -0.00997534301132
v 0.10262831300497 0.33029535412788 -0.00075665308395
v 0.07529777288437 0.32431125640869 0.01007071416825
v 0.08887662738562 0.36621233820915 -0.01561806444079
v 0.09798680990934 0.36820703744888 -0.0192271862179
v 0.11063282191753 0.37716978788376 0.0176475699991
v 0.10152264684439 0.37517508864403 0.02125669270754
v 0.06360191851854 0.4073486328125 0.0264413356781
v 0.07271210104227 0.40934336185455 0.02283221483231
v 0.06006608530879 0.40038061141968 -0.01404254231602
v 0.05095590651035 0.39838591217995 -0.01043341960758
v 0.09093246608973 0.41333276033401 0.01561396941543
v 0.10004264861345 0.41532745957375 0.01200484763831
v 0.08739662915468 0.40636470913887 -0.02486990951002
v 0.07828644663095 0.40437000989914 -0.02126078680158
v 0.0700645595789 0.41888275742531 0.0214215349406
v 0.08828492462635 0.42287215590477 0.01420328952372
v 0.07563890516758 0.41390940546989 -0.02267146669328
v 0.05741854384542 0.40992000699043 -0.01545322220773
v 0.05411741137505 0.40062659978867 -0.00121473008767
v 0.09203813225031 0.36845302581787 -0.00639937492087
# 26 vertices

vn -0.26475450396538 0.95394176244736 -0.14106805622578
vn 0.26475450396538 -0.95394176244736 0.14106805622578
vn 0.91101813316345 0.19947019219398 -0.36091223359108
vn -0.91101813316345 -0.19947019219398 0.36091223359108
vn 0.3161503970623 0.22406868636608 0.92186886072159
vn -0.3161503970623 -0.22406868636608 -0.92186886072159
# 6 normals

vt 0.09375 0.8125 0
vt 0.125 1 0
vt 0.125 0.8125 0
vt 0.03125 0.8125 0
vt 0.03125 0.5625 0
vt 0 0.3125 0
vt 0.03125 0.3125 0
vt 0.09375 0.5625 0
vt 0.53125 0.25 0
vt 0.53125 1 0
vt 0.4375 1 0
vt 0.4375 0.25 0
vt 0.125 0.3125 0
vt 0.09375 0.3125 0
vt 0.21875 0.8125 0
vt 0.21875 0.3125 0
vt 0.0625 0.3125 0
vt 0.34375 0.8125 0
vt 0.34375 0.5625 0
vt 0.21875 0.5625 0
vt 0.53125 0.5 0
vt 0.625 0.5 0
vt 0.03125 0.6875 0
vt 0 0.6875 0
vt 0.4375 0.8125 0
vt 0.71875 0.25 0
vt 0.71875 1 0
vt 0.625 0.25 0
vt 0.25 0.3125 0
# 29 texture coordinates

o Right_Arm-local
usemtl Male_RightArm-Material
f 32/5/13 31/46/13 30/32/13 29/2/13
f 36/48/13 35/47/13 34/32/13 33/46/13
f 40/9/13 39/50/13 38/49/13 37/5/13
f 44/9/14 43/50/14 42/52/14 41/51/14
f 48/5/14 47/49/14 46/50/14 45/9/14
f 52/49/14 51/46/14 50/53/14 49/50/14
f 29/57/15 53/56/15 41/55/15 32/54/15
f 33/59/15 44/46/15 53/48/15 36/58/15
f 43/5/15 52/49/15 49/50/15 42/9/15
f 31/61/16 40/60/16 54/48/16 30/58/16
f 35/62/16 54/13/16 37/50/16 34/52/16
f 45/9/16 50/50/16 51/49/16 48/5/16
f 39/65/16 46/64/16 47/63/16 38/60/16
f 34/67/17 48/22/17 44/55/17 33/66/17
f 38/59/17 47/53/17 48/13/17 37/62/17
f 48/69/17 51/68/17 52/49/17 43/5/17
f 30/30/17 35/70/17 36/63/17 29/64/17
f 32/73/18 41/22/18 45/72/18 31/71/18
f 40/61/18 45/65/18 46/28/18 39/74/18
f 42/5/18 49/49/18 50/68/18 45/69/18

v -0.09766048938036 0.2222725301981 -0.02358602173626
v -0.11705534905195 0.21376505494118 -0.00233837356791
v -0.09417349845171 0.20717859268188 0.01591100357473
v -0.07477863132954 0.21568608283997 -0.0053366436623
v -0.11688524484634 0.20443026721478 -0.00592070957646
v -0.12335019558668 0.20159444212914 0.00116183864884
v -0.10046834498644 0.195007994771 0.01941121555865
v -0.09400338679552 0.19784381985664 0.01232866756618
v -0.07443842291832 0.19701652228832 -0.01250131521374
v -0.09383328258991 0.1885090470314 0.00874633155763
v -0.08620599657297 0.18631356954575 0.01482945680618
v -0.06681113690138 0.19482104480267 -0.00641819089651
v -0.07409820705652 0.17834697663784 -0.01966598816216
v -0.09995802491903 0.16700367629528 0.008664207533
v -0.12283987551928 0.17359012365341 -0.00958516914397
v -0.09698006510735 0.18493343889713 -0.03791536390781
v -0.06647092103958 0.17615149915218 -0.01358286291361
v -0.08586578071117 0.16764402389526 0.00766478478909
v -0.09349306672812 0.16983950138092 0.00158165977336
v -0.11637492477894 0.17642594873905 -0.01666771806777
# 20 vertices

vn 0.01701065897942 -0.93347704410553 -0.35823345184326
vn -0.01701065897942 0.93347704410553 0.35823345184326
vn -0.64649528264999 -0.28358262777328 0.70825469493866
vn 0.64649528264999 0.28358262777328 -0.70825469493866
vn 0.76272833347321 -0.21954835951328 0.60831242799759
vn -0.76272833347321 0.21954835951328 -0.60831242799759
# 6 normals

vt 0.375 0.5625 0
vt 0.375 0.8125 0
vt 0.25 0.875 0
vt 0.25 1 0
vt 0.1875 0.875 0
vt 0.3125 1 0
vt 0.3125 0.8125 0
vt 0.25 0.8125 0
vt 0.3125 0.875 0
vt 0.375 0.875 0
vt 0.5625 0.5625 0
vt 0.125 0.375 0
vt 0.3125 0.375 0
# 13 texture coordinates

o Left_Hand-local
usemtl Male_LeftHand-Material
f 58/5/19 57/8/19 56/3/19 55/2/19
f 62/5/19 61/7/19 60/6/19 59/2/19
f 66/7/19 65/6/19 64/2/19 63/5/19
f 70/9/20 69/5/20 68/8/20 67/10/20
f 67/5/20 73/2/20 72/6/20 71/7/20
f 55/10/21 70/8/21 67/76/21 58/75/21
f 63/79/21 67/3/21 71/78/21 66/77/21
f 57/82/22 62/81/22 59/80/22 56/78/22
f 65/84/22 72/17/22 73/80/22 64/83/22
f 61/76/22 68/24/22 69/20/22 60/17/22
f 56/85/23 74/24/23 70/76/23 55/75/23
f 60/23/23 69/22/23 74/20/23 59/24/23
f 58/9/24 63/15/24 64/86/24 57/11/24
f 62/86/24 73/15/24 68/10/24 61/29/24
f 66/10/24 71/25/24 72/87/24 65/29/24

v -0.08026673644781 0.29471591114998 0.01970655657351
v -0.10314859449863 0.30130237340927 0.00145718292333
v -0.12254345417023 0.29279488325119 0.02270482853055
v -0.0996615961194 0.28620845079422 0.04095420241356
v -0.09813063591719 0.20219549536705 0.00871318299323
v -0.12101249396801 0.20878194272518 -0.00953619088978
v -0.10161763429642 0.21728943288326 -0.03078383766115
v -0.07873577624559 0.21070297062397 -0.01253446284682
# 8 vertices

vn 0.01701066270471 -0.93347704410553 -0.35823351144791
vn -0.01701066270471 0.93347704410553 0.35823351144791
vn -0.76272839307785 0.21954835951328 -0.60831236839294
vn 0.76272839307785 -0.21954835951328 0.60831236839294
vn -0.64649522304535 -0.28358262777328 0.70825481414795
vn 0.64649522304535 0.28358262777328 -0.70825481414795
# 6 normals

# 0 texture coordinate

o Left_Forearm-local
usemtl Male_LeftForeArm-Material
f 78/34/25 77/33/25 76/32/25 75/2/25
f 82/32/26 81/3/26 80/35/26 79/33/26
f 75/38/27 82/37/27 79/17/27 78/36/27
f 77/40/28 80/39/28 81/17/28 76/36/28
f 76/41/29 81/20/29 82/39/29 75/40/29
f 78/45/30 79/44/30 80/43/30 77/42/30

v -0.06010704487562 0.40956601500511 -0.01555697247386
v -0.07855705916882 0.41298860311508 -0.02247672714293
v -0.09100662916899 0.42100405693054 0.01468187104911
v -0.07255661487579 0.41758146882057 0.02160162478685
v -0.05316508188844 0.39820817112923 -0.0107811531052
v -0.06239008903503 0.39991945028305 -0.01424103043973
v -0.07483965903521 0.40793490409851 0.02291756682098
v -0.0656146556139 0.40622362494469 0.02637744508684
v -0.08084010332823 0.40334206819534 -0.0211607851088
v -0.09006510674953 0.40505334734917 -0.02462066151202
v -0.10251467674971 0.41306880116463 0.0125379357487
v -0.0932896733284 0.41135749220848 0.01599781215191
v -0.10242185741663 0.37277129292488 0.0212615840137
v -0.11164686083794 0.3744825720787 0.01780170574784
v -0.09919729083776 0.36646711826324 -0.01935689151287
v -0.08997228741646 0.36475583910942 -0.01589701324701
v -0.074541836977 0.32303959131241 0.00903603713959
v -0.10221685469151 0.3281734585762 -0.0013435947476
v -0.09910446405411 0.3261696100235 -0.01063324417919
v -0.07142944633961 0.32103571295738 -0.00025361275766
v -0.09301119297743 0.29046496748924 0.04216875508428
v -0.12068621814251 0.29559883475304 0.03178912401199
v -0.11134903877974 0.2895872592926 0.00392017466947
v -0.08367401361465 0.28445336222649 0.01429980620742
v -0.05627747625113 0.40021201968193 -0.00149150309153
v -0.09308467805386 0.36675968766212 -0.00660736393183
# 26 vertices

vn -0.22830446064472 -0.96465539932251 0.13159422576427
vn 0.22830446064472 0.96465539932251 -0.13159422576427
vn -0.92250049114227 0.17112952470779 -0.34598770737648
vn 0.92250049114227 -0.17112952470779 0.34598770737648
vn -0.31123921275139 0.20038628578186 0.92896473407745
vn 0.31123921275139 -0.20038628578186 -0.92896473407745
# 6 normals

vt 0.0625 0.75 0
vt 0.03125 0.75 0
vt 0.03125 0.5 0
vt 0 0.5 0
vt 0.03125 1 0
vt 0.15625 0.8125 0
vt 0.15625 1 0
vt 0.1875 0.3125 0
vt 0 0.25 0
vt 0.03125 0.25 0
vt 0.0625 0.5 0
vt 0.0625 0.25 0
vt 0.03125 0.875 0
vt 0 0.875 0
vt 0.40625 0.8125 0
vt 0.40625 0.5625 0
# 16 texture coordinates

o Left_Arm-local
usemtl Male_LeftArm-Material
f 86/1/31 85/88/31 84/6/31 83/2/31
f 90/91/31 89/90/31 88/89/31 87/1/31
f 94/1/31 93/89/31 92/92/31 91/2/31
f 98/2/32 97/92/32 96/89/32 95/1/32
f 102/50/32 101/89/32 100/88/32 99/13/32
f 106/6/32 105/94/32 104/93/32 103/7/32
f 107/57/33 106/56/33 103/55/33 90/54/33
f 87/62/33 102/7/33 99/46/33 107/59/33
f 83/2/33 88/92/33 89/89/33 86/1/33
f 95/95/34 104/8/34 105/46/34 108/59/34
f 85/1/34 94/89/34 91/92/34 84/2/34
f 108/97/34 100/90/34 101/91/34 98/96/34
f 93/10/34 96/25/34 97/81/34 92/8/34
f 91/67/35 101/22/35 102/55/35 87/66/35
f 92/99/35 97/98/35 98/90/35 91/97/35
f 84/101/35 91/100/35 88/92/35 83/2/35
f 100/103/35 105/102/35 106/81/35 99/25/35
f 90/73/36 103/22/36 104/72/36 94/71/36
f 94/103/36 95/102/36 96/70/36 93/30/36
f 86/2/36 89/92/36 94/100/36 85/101/36

