# WaveFront *.obj file (generated by Cinema 4D)

mtllib ./Spacehero-legs.mtl

v -0.02799591049552 0.01518359594047 -0.01571795716882
v -0.02953515201807 0.13474959135056 -0.02579803951085
v -0.02942214906216 0.13727124035358 0.00409558182582
v -0.02788290753961 0.01770525053144 0.01417566463351
v -0.02865252830088 0.07748824357986 0.0091356234625
v -0.0293844807893 0.13811178505421 0.01406012382358
v -0.02861486002803 0.07832879573107 0.0191001649946
v -0.05788022652268 0.01733129844069 0.01432060450315
v -0.05941946804523 0.13689728081226 0.0042405212298
v -0.05953247100115 0.13437563180923 -0.02565310150385
v -0.0579932294786 0.01480964291841 -0.01557301729918
v -0.0586121827364 0.07795484364033 0.01924510486424
v -0.05938180163503 0.13773784041405 0.0142050627619
v -0.0586498491466 0.07711429148912 0.00928056240082
# 14 vertices

vn -0.99991065263748 -0.01246511284262 0.00483130896464
vn 0.99991065263748 0.01246511284262 -0.00483130896464
vn -0.01282700616866 0.99638313055038 -0.08400068432093
vn 0.01282700616866 -0.99638313055038 0.08400068432093
vn 0.0037667567376 0.08405514806509 0.99645400047302
vn -0.0037667567376 -0.08405514806509 -0.99645400047302
# 6 normals

vt 0 0.25 0
vt 0 1 0
vt 0.09375 1 0
vt 0.09375 0.25 0
vt 0.09375 0.625 0
vt 0.125 1 0
vt 0.125 0.625 0
vt 0.21875 0.25 0
vt 0.21875 1 0
vt 0.125 0.25 0
vt 0.21875 0.8125 0
vt 0.3125 0.8125 0
vt 0.3125 1 0
vt 0.0625 0.5625 0
vt 0.0625 0.75 0
vt 0.03125 0.75 0
vt 0.03125 0.5625 0
vt 0.09375 0.75 0
vt 0 0.75 0
vt 0.375 1 0
vt 0.46875 1 0
vt 0.46875 0.25 0
vt 0.375 0.25 0
vt 0.21875 0.4375 0
vt 0.3125 0.4375 0
vt 0.46875 0.625 0
vt 0.5625 0.625 0
vt 0.5625 1 0
# 28 texture coordinates

o Left_Leg-local
usemtl Male_LeftLeg-Material
f 4/4/1 3/3/1 2/2/1 1/1/1
f 7/7/1 6/6/1 3/3/1 5/5/1
f 11/10/2 10/6/2 9/9/2 8/8/2
f 14/4/2 9/5/2 13/7/2 12/10/2
f 1/9/3 11/13/3 8/12/3 4/11/3
f 5/17/3 14/16/3 12/15/3 7/14/3
f 6/19/4 13/18/4 10/3/4 2/2/4
f 2/23/5 10/22/5 11/21/5 1/20/5
f 4/11/6 8/12/6 14/25/6 5/24/6
f 7/21/6 12/28/6 13/27/6 6/26/6

v -0.02003769762814 0.16913065314293 -0.04128711670637
v -0.0209959410131 0.2487979978323 -0.03406248614192
v -0.02069909498096 0.24428591132164 0.01573262363672
v -0.019740851596 0.16461855173111 0.00850799307227
v -0.02949831262231 0.12826989591122 -0.03489209711552
v -0.02997743338346 0.16810357570648 -0.03127977997065
v -0.02973995730281 0.16449390351772 0.00855630636215
v -0.02926083467901 0.12466022372246 0.00494399154559
v -0.05925815552473 0.12428627163172 0.00508893048391
v -0.06069552153349 0.24378730356693 0.01592587679625
v -0.06093299761415 0.24739697575569 -0.0239102113992
v -0.05949563160539 0.12789595127106 -0.03474715724587
v -0.05997475236654 0.16772963106632 -0.03113484196365
v -0.06099236756563 0.24829940497875 -0.0338692329824
v -0.06003412231803 0.16863204538822 -0.04109386354685
v -0.01997832767665 0.16822823882103 -0.03132809326053
v -0.03069820068777 0.24416126310825 0.0157809369266
# 17 vertices

vn -0.01197804603726 0.99584186077118 0.09030786901712
vn 0.01197804603726 -0.99584186077118 -0.09030786901712
vn 0.00593691738322 -0.09024193137884 0.99590218067169
vn -0.00593691738322 0.09024193137884 -0.99590218067169
# 4 normals

vt 0 0.5 0
vt 0.15625 1 0
vt 0.15625 0.5 0
vt 0.125 0.5 0
vt 0.28125 0.25 0
vt 0.28125 1 0
vt 0.15625 0.25 0
vt 0.3125 0.5 0
vt 0.28125 0.5 0
vt 0.03125 1 0
vt 0.125 0.6875 0
vt 0 0.6875 0
vt 0.5 1 0
vt 0.5 0.5 0
vt 0.375 0.5 0
vt 0.5 0.25 0
vt 0.59375 0.25 0
vt 0.59375 1 0
vt 0.34375 0.5 0
vt 0.34375 1 0
# 20 texture coordinates

o Left_Thigh-local
usemtl Male_LeftThigh-Material
f 18/31/1 17/30/1 16/2/1 15/29/1
f 22/1/1 21/10/1 20/32/1 19/29/1
f 26/35/2 25/30/2 24/34/2 23/33/2
f 29/37/2 28/34/2 25/13/2 27/36/2
f 19/2/7 26/3/7 23/18/7 22/19/7
f 15/19/7 29/2/7 27/38/7 30/16/7
f 30/2/7 20/38/7 21/16/7 18/19/7
f 17/40/8 24/39/8 28/6/8 16/2/8
f 16/43/9 28/42/9 29/41/9 15/20/9
f 20/33/9 27/23/9 26/43/9 19/37/9
f 22/41/10 23/46/10 24/45/10 31/44/10
f 18/13/10 21/48/10 31/47/10 17/36/10

v 0.06459839642048 0.0160591378808 0.0275213457644
v 0.06711988151073 0.1319308578968 -0.00358163169585
v 0.05431802198291 0.13922414183617 0.02255112305284
v 0.05179654061794 0.02335242927074 0.05365410074592
v 0.05305728316307 0.08128828555346 0.03810261189938
v 0.05005073547363 0.14165525138378 0.03126204386353
v 0.0487899966538 0.08371938765049 0.04681353271008
v 0.02467246167362 0.02058340795338 0.04113941267133
v 0.02719394303858 0.13645513355732 0.01003643590957
v 0.03999580070376 0.1291618347168 -0.01609632000327
v 0.0374743193388 0.01329011749476 0.01500665675849
v 0.02166591770947 0.08095036447048 0.03429884463549
v 0.02292665839195 0.13888622820377 0.01874735578895
v 0.0259332023561 0.07851926982403 0.02558792382479
# 14 vertices

vn -0.90413570404053 -0.09230066090822 -0.41715613007545
vn 0.90413570404053 0.09230066090822 0.41715613007545
vn 0.02101234532893 0.96559739112854 -0.25919142365456
vn -0.02101234532893 -0.96559739112854 0.25919142365456
vn -0.42672842741013 0.243109613657 0.87109160423279
vn 0.42672842741013 -0.243109613657 -0.87109160423279
# 6 normals

# 0 texture coordinate

o Right_Leg-local
usemtl Male_RightLeg-Material
f 35/4/11 34/3/11 33/2/11 32/1/11
f 38/7/11 37/6/11 34/3/11 36/5/11
f 42/10/12 41/6/12 40/9/12 39/8/12
f 45/4/12 40/5/12 44/7/12 43/10/12
f 32/9/13 42/13/13 39/12/13 35/11/13
f 36/17/13 45/16/13 43/15/13 38/14/13
f 37/19/14 44/18/14 41/3/14 33/2/14
f 33/23/15 41/22/15 42/21/15 32/20/15
f 35/11/16 39/12/16 45/25/16 36/24/16
f 38/21/16 43/28/16 44/27/16 37/26/16

v 0.0624051168561 0.12659591436386 -0.01669816114008
v 0.05746161565185 0.24609799683094 -0.00696065556258
v 0.05047677829862 0.24261236190796 0.03227023780346
v 0.05542027950287 0.12311028689146 0.02253273315728
v 0.0625034943223 0.16730135679245 -0.02326004952192
v 0.0592078268528 0.24696941673756 -0.01676837913692
v 0.06075728312135 0.16642995178699 -0.01345232594758
v 0.02590706385672 0.12232326716185 0.01720814406872
v 0.02425923012197 0.1621572971344 0.02045398019254
v 0.03124406933784 0.16564293205738 -0.01877691410482
v 0.0328919030726 0.12580889463425 -0.022022748366
v 0.01442149374634 0.16189496219158 0.0186791177839
v 0.01112582627684 0.24156300723553 0.02517078816891
v 0.01985687576234 0.24592004716396 -0.02386782877147
v 0.02315254323184 0.16625200212002 -0.03035949915648
v 0.0329902805388 0.16651433706284 -0.02858463674784
v 0.02096356265247 0.24182534217834 0.02694565057755
# 17 vertices

vn -0.98377358913422 -0.02623395994306 -0.17748622596264
vn 0.98377358913422 0.02623395994306 0.17748622596264
vn -0.04119583591819 0.99585050344467 0.08114586770535
vn 0.04119583591819 -0.99585050344467 -0.08114586770535
vn -0.17462095618248 -0.08714085072279 0.98077213764191
vn 0.17462095618248 0.08714085072279 -0.98077213764191
# 6 normals

vt 0.15625 0.75 0
vt 0.28125 0.75 0
vt 0.3125 0.25 0
vt 0.3125 0.75 0
vt 0.03125 0.6875 0
vt 0.03125 0.8125 0
vt 0 0.8125 0
vt 0.375 0.75 0
vt 0.34375 0.25 0
vt 0.34375 0.75 0
# 10 texture coordinates

o Right_Thigh-local
usemtl Male_RightThigh-Material
f 49/10/17 48/6/17 47/2/17 46/1/17
f 52/31/17 47/30/17 51/6/17 50/32/17
f 56/30/18 55/34/18 54/50/18 53/49/18
f 60/35/18 59/49/18 58/52/18 57/51/18
f 46/2/19 56/3/19 53/18/19 49/19/19
f 61/2/19 60/38/19 57/53/19 54/40/19
f 50/55/19 61/2/19 55/38/19 52/54/19
f 48/40/20 58/39/20 59/6/20 51/2/20
f 51/43/21 59/42/21 60/41/21 50/20/21
f 52/50/21 55/56/21 56/20/21 46/34/21
f 49/41/22 53/46/22 62/45/22 48/44/22
f 54/52/22 57/58/22 58/57/22 62/51/22

